;{{ 壒奒1 [壒奒2 乧壒奒16傑偱] }} [壒挿] [ ,1壒偺挿偝(def=%1) [ ,僞僀on(1,def)/off(0)
;				         [ ,gate(def=0) [ ,1loop偱曄壔偡傞壒検亇(def=0) ]]]]
;壒検偼曄壔偝偣偨傜栠傜側偄庤敳偒巇條偱偡 >_<

G	E1,-2,24,0 v15 q0
G	o4l8[{{eg>c<}}2. {{eg>c<}},,,2 {{fa>c<}}%108
G	o4l8 {{fa->c<}}%60 {{fa->c<}}r {{eg>c<}}%108]2
G	o5l8 {{eg>c<}}2. {{eg>c<}},,,2 {{fa>c<}}%108
G	o5l8 {{fa->c<}}%60 {{fa->c<}}r {{eg>c<}}%108
G	o5l8 {{eg>c<}}2. {{eg>c<}},,,2 {{fa>c<}}%108
G	o5l8[{{fb>d<}},,,2]3rr {{fb>d<}}r {{eg>c<}} r1
H	E2,-2,6,0 v14o2l8 [c>Q6cQ8<]56 <gggrrgr>c r1
!b	E1,-4,1,0v15q99,3P1o3c16q0
!h	E1,-3,1,0v15q99,4P2w0c16q0
!s	E1,-2,1,0v15P1o3a%1P2w10v13c16-%1
!c4	E0,-0,2,0v15P1o3e%1P2w04c4-%1
I	l16MP-128 [!b[!h]3!s[!h]3]15 !b!h!b!b!s!h!b!b
I	!c4!s[!h]3[!b[!h]3!s[!h]3]11 !sr!sr!sr !b!b!br !brr8 !br r1
